<?xml version="1.0" encoding="UTF-8"?>
<svg version="1.1" xmlns="http://www.w3.org/2000/svg" width="830" height="905">
<path d="M0 0 C273.9 0 547.8 0 830 0 C830 298.65 830 597.3 830 905 C556.1 905 282.2 905 0 905 C0 606.35 0 307.7 0 0 Z " fill="#FDFDFE" transform="translate(0,0)"/>
<path d="M0 0 C4.89526168 4.00668283 7.75429708 7.96552374 10.3046875 13.73046875 C11.71362479 16.80762694 13.50440534 19.51485736 15.4140625 22.30078125 C17.4469418 26.07724549 17.56195522 30.20885262 17.67578125 34.42578125 C17.70865234 35.41126953 17.74152344 36.39675781 17.77539062 37.41210938 C17.83623712 39.45888179 17.89357025 41.50576188 17.94726562 43.55273438 C18.20362443 50.97746589 18.47402869 58.12459249 23.0546875 64.3125 C24.77568516 66.92472859 25.44787615 68.28208098 26.0546875 71.4375 C25.4296875 74.1875 25.4296875 74.1875 23.1171875 76.5 C20.4296875 78.1875 20.4296875 78.1875 17.4296875 79.1875 C17.28273437 80.8890625 17.28273437 80.8890625 17.1328125 82.625 C15.42927129 100.47360077 15.42927129 100.47360077 8.8046875 106.625 C4.86849508 109.21460028 2.15516239 109.39522927 -2.4765625 109.61328125 C-4.70426804 109.97312008 -4.70426804 109.97312008 -5.67529297 111.91186523 C-6.67491204 114.45344988 -6.88468354 116.44697499 -6.984375 119.171875 C-7.04238281 120.57373047 -7.04238281 120.57373047 -7.1015625 122.00390625 C-7.1325 122.97199219 -7.1634375 123.94007813 -7.1953125 124.9375 C-7.25332031 126.41283203 -7.25332031 126.41283203 -7.3125 127.91796875 C-7.40659676 130.34096037 -7.49223578 132.76394796 -7.5703125 135.1875 C-6.508125 135.15914062 -5.4459375 135.13078125 -4.3515625 135.1015625 C11.82464588 135.4692036 28.15452336 151.73568614 40.4296875 161.1875 C41.02104492 161.64237793 41.61240234 162.09725586 42.22167969 162.56591797 C49.97777062 168.55250029 57.55972641 174.73875824 65.10424805 180.98901367 C70.13064068 185.14471954 75.22539532 189.19824588 80.38037109 193.19287109 C85.11624757 196.88396786 89.68313257 200.75754572 94.16894531 204.7487793 C96.90059555 207.12601768 98.89497855 208.47678282 102.4296875 209.1875 C102.78571045 208.69572266 103.1417334 208.20394531 103.50854492 207.69726562 C111.82075435 196.24388382 120.3484261 185.04262359 129.4296875 174.1875 C130.15285156 173.31996094 130.87601562 172.45242188 131.62109375 171.55859375 C135.88208623 166.56136067 135.88208623 166.56136067 138.78125 164.58203125 C142.55758751 161.167732 144.48117179 157.10938532 146.8046875 152.625 C150.15717196 146.24650849 153.69106471 140.10337289 157.60449219 134.05102539 C159.50019248 131.07688565 161.31525597 128.06535836 163.11328125 125.03125 C163.73138672 123.98839844 164.34949219 122.94554687 164.98632812 121.87109375 C166.23922487 119.75040664 167.48923187 117.62800959 168.73632812 115.50390625 C180.00222505 96.53593411 180.00222505 96.53593411 186.4296875 92.1875 C187.7496875 92.8475 189.0696875 93.5075 190.4296875 94.1875 C190.98151653 101.7828134 189.39324915 106.54650005 185.9296875 113.25 C185.50042969 114.11560547 185.07117188 114.98121094 184.62890625 115.87304688 C183.57809399 117.98634708 182.51180116 120.09010535 181.4296875 122.1875 C182.16832031 122.26484375 182.90695312 122.3421875 183.66796875 122.421875 C187.11533335 123.37758004 188.30825239 124.74002069 190.6171875 127.4375 C191.62845703 128.58992188 191.62845703 128.58992188 192.66015625 129.765625 C196.89469452 135.56124029 197.28799267 141.21264111 196.4296875 148.1875 C192.75972002 160.81901599 184.85799932 173.23155667 176.4296875 183.1875 C177.4196875 184.5075 178.4096875 185.8275 179.4296875 187.1875 C177.95966641 189.92192337 176.47892641 192.64967801 174.9921875 195.375 C174.38987305 196.49938477 174.38987305 196.49938477 173.77539062 197.64648438 C171.03511803 202.645913 168.00413942 207.34797846 164.73803711 212.01293945 C164.32261406 212.60948586 163.90719101 213.20603226 163.47917938 213.82065582 C162.46435334 215.27743621 161.44725437 216.73263277 160.4296875 218.1875 C208.15962721 218.27905776 255.88955762 218.34953988 303.61956783 218.39176132 C309.25467948 218.39676414 314.88979095 218.40194143 320.52490234 218.40722656 C321.64675039 218.4082758 322.76859844 218.40932505 323.92444189 218.41040608 C342.08865247 218.42781076 360.25281241 218.45934881 378.41699295 218.49611118 C397.05546261 218.53351882 415.69390575 218.55573549 434.33241141 218.56385398 C445.83313954 218.5693421 457.33372453 218.58667525 468.8344086 218.61916587 C476.72112671 218.64031154 484.60777082 218.64669991 492.49451523 218.64150551 C497.04460097 218.63894383 501.59443658 218.64286762 506.14447784 218.6643219 C510.31351982 218.68383586 514.48214424 218.68473874 518.65120573 218.67109558 C520.15609276 218.66941023 521.6610062 218.67444344 523.1658415 218.68703273 C532.740104 218.76244561 541.28122661 218.26943918 549.05078125 212.109375 C549.65019531 211.39265625 550.24960937 210.6759375 550.8671875 209.9375 C551.48464844 209.23109375 552.10210938 208.5246875 552.73828125 207.796875 C557.00587684 201.21314786 557.87483237 195.20837709 557.86206055 187.55859375 C557.87734802 186.16695763 557.87734802 186.16695763 557.89294434 184.74720764 C557.92293509 181.70640922 557.93231899 178.66592654 557.94140625 175.625 C557.95826324 173.50649988 557.97641485 171.38800971 557.99580383 169.26953125 C558.04319896 163.71298326 558.07307621 158.15647558 558.09924316 152.59979248 C558.1291016 146.92191611 558.17561379 141.24417848 558.22070312 135.56640625 C558.30661696 124.4401769 558.37401526 113.31391891 558.4296875 102.1875 C575.03448768 110.24477146 584.10042707 132.58169618 589.96508789 148.97949219 C593.02249252 157.91253118 595.04060618 166.85784934 596.4296875 176.1875 C596.56117188 177.01765625 596.69265625 177.8478125 596.828125 178.703125 C599.90667157 202.49945794 596.17767602 227.35191567 589.4296875 250.1875 C589.22537109 250.89358398 589.02105469 251.59966797 588.81054688 252.32714844 C578.09785591 288.39320801 553.14560692 320.86931853 520.15625 339.171875 C503.64461178 348.06710985 486.70264271 355.48893413 468.95727539 361.52905273 C446.85917163 369.1343149 414.65972143 380.72743214 403.4296875 403.1875 C404.450625 403.2803125 404.450625 403.2803125 405.4921875 403.375 C411.19391403 404.9520733 415.12616449 408.19460522 418.3671875 413.125 C422.39705918 421.17139941 421.20200417 430.32306778 418.9296875 438.75 C410.83343046 461.99500279 392.65630761 475.31428649 371.98461914 486.50610352 C359.7818681 493.18204215 347.30737834 501.62506784 342.05078125 515.05859375 C340.7526182 519.50827212 341.0056386 522.88885024 342.4296875 527.25 C345.99423768 532.48543308 351.16846654 535.46149978 356.5546875 538.625 C361.33578541 541.61082399 365.57050634 544.79141229 367.0078125 550.47265625 C367.79816331 561.80700544 359.87660172 570.2140142 352.92089844 578.24121094 C349.56128418 582.03645298 346.04288584 585.63344627 342.4296875 589.1875 C344.0796875 589.5175 345.7296875 589.8475 347.4296875 590.1875 C347.54580906 602.36736164 347.44641853 614.53907565 347.11129761 626.71484375 C347.07402515 628.0959542 347.03954862 629.47714339 347.00808716 630.85839844 C346.44379379 655.02498702 340.98732985 674.80369569 323.4296875 692.1875 C307.61325597 706.98524611 289.12014329 711.76155036 268.0546875 711.45703125 C248.80551167 710.80315195 231.4099273 700.77610683 218.3046875 687.0625 C205.03542652 671.48320573 200.05318094 653.20296833 200.234375 633.08203125 C200.23861984 631.27420418 200.23861984 631.27420418 200.24295044 629.42985535 C200.2540523 625.61979808 200.27913816 621.80998497 200.3046875 618 C200.31473022 615.40039404 200.3238538 612.80078437 200.33203125 610.20117188 C200.35224834 603.86311388 200.39141666 597.52557689 200.4296875 591.1875 C209.6696875 591.1875 218.9096875 591.1875 228.4296875 591.1875 C227.7343741 568.93747112 219.79990286 551.79394407 203.4453125 536.30859375 C198.88414455 532.26396832 195.20080342 530.26389902 189.15136719 528.99755859 C168.71379534 524.62648886 153.11456139 512.44790486 141.4453125 495.265625 C135.08564238 485.35637155 130.20053905 474.75900977 125.6171875 463.93359375 C122.19004044 455.84446282 118.57833142 448.37137258 113.4296875 441.1875 C112.99527344 440.55714844 112.56085938 439.92679688 112.11328125 439.27734375 C102.6131893 426.82796952 86.45177446 420.22686649 71.4296875 418.1875 C67.20250155 417.84939097 62.98048321 417.68707942 58.7421875 417.5625 C57.64712891 417.52382813 56.55207031 417.48515625 55.42382812 417.4453125 C52.7592695 417.35222748 50.09469728 417.26640148 47.4296875 417.1875 C47.0996875 416.5275 46.7696875 415.8675 46.4296875 415.1875 C47.44440922 426.0780434 48.49901294 436.96263507 49.6484375 447.83984375 C49.96861366 450.90870266 50.2879089 453.97765204 50.60693359 457.04663086 C50.81894671 459.06877415 51.03402115 461.09059928 51.25244141 463.11206055 C55.42275901 501.83146609 56.09864664 540.84618087 57.35527158 579.74147815 C57.53294603 585.23056712 57.71573327 590.71947694 57.89974797 596.20835656 C58.10235794 602.25563457 58.30135623 608.30302577 58.49883652 614.3504734 C58.58167282 616.87747921 58.66537747 619.40445673 58.75003433 621.93140221 C58.86784433 625.46288335 58.98153928 628.99447555 59.09423828 632.52612305 C59.12849915 633.52955246 59.16276001 634.53298187 59.19805908 635.56681824 C59.49512808 645.11931262 59.4296875 654.61264471 59.4296875 664.1875 C34.0196875 664.1875 8.6096875 664.1875 -17.5703125 664.1875 C-18.69527345 655.1878124 -18.69527345 655.1878124 -18.86019897 652.04905701 C-18.89930201 651.33197602 -18.93840504 650.61489504 -18.97869301 649.87608433 C-19.01714521 649.11832171 -19.05559742 648.3605591 -19.09521484 647.57983398 C-19.13937216 646.75596915 -19.18352947 645.93210432 -19.22902489 645.08327389 C-19.37403885 642.36684516 -19.51510674 639.6502261 -19.65625 636.93359375 C-19.75842856 635.00890538 -19.86091284 633.08423323 -19.96368408 631.15957642 C-20.18081069 627.08741948 -20.39650878 623.01519055 -20.61114502 618.94290161 C-21.16562369 608.43795844 -21.73543347 597.93383855 -22.3046875 587.4296875 C-22.36031986 586.40241861 -22.41595222 585.37514973 -22.47327042 584.31675148 C-23.69512055 561.66626328 -23.69512055 561.66626328 -25.02618408 539.02200317 C-25.13629851 537.21723521 -25.24350464 535.41228669 -25.34735107 533.60714722 C-26.34989852 516.27503832 -28.07512151 499.09810635 -33.3828125 482.5 C-33.72957031 481.37295654 -34.07632813 480.24591309 -34.43359375 479.0847168 C-37.3303185 469.73758774 -40.37806316 460.43776799 -43.5703125 451.1875 C-44.76200685 456.89957164 -45.81591414 462.60774079 -46.68742371 468.37702942 C-48.5472405 480.37373659 -50.9997943 492.20514199 -53.6171875 504.0546875 C-53.81200525 504.93999586 -54.00682301 505.82530422 -54.20754433 506.73744011 C-58.40598871 525.78468109 -62.96236414 544.73851468 -67.62489319 563.67667389 C-68.49008907 567.19439111 -69.35147692 570.71303691 -70.21296883 574.23166275 C-77.5616852 604.24277931 -85.01824756 634.2269114 -92.5703125 664.1875 C-105.46419255 662.81051902 -118.16879532 660.57658222 -130.91992188 658.24633789 C-134.35466968 657.61872207 -137.79049984 656.99732624 -141.2265625 656.37695312 C-143.41933497 655.97952036 -145.61204567 655.58174661 -147.8046875 655.18359375 C-148.82753845 654.99816513 -149.8503894 654.81273651 -150.90423584 654.62168884 C-152.32787445 654.36120506 -152.32787445 654.36120506 -153.78027344 654.09545898 C-154.61137634 653.94382797 -155.44247925 653.79219696 -156.29876709 653.63597107 C-158.41091594 653.21896965 -160.48737265 652.73040026 -162.5703125 652.1875 C-161.26553225 639.79893091 -159.07660614 627.64575274 -156.7177124 615.42001343 C-155.82075962 610.76828119 -154.9365392 606.11415135 -154.05123901 601.46018982 C-153.35462443 597.79925293 -152.65634726 594.13863555 -151.95800781 590.47802734 C-146.63730062 562.55383739 -141.3941301 534.61206088 -136.64532471 506.58413696 C-136.3137743 504.62940312 -135.97975195 502.67508625 -135.64276123 500.72128296 C-130.96726412 473.51989794 -128.9701628 446.23449574 -127.56835938 418.70721436 C-127.36274222 414.70553335 -127.14751585 410.70436895 -126.93359375 406.703125 C-126.29546716 394.69550843 -125.65829141 382.6892072 -125.18412781 370.67378235 C-124.79860029 361.06203481 -123.96990355 351.6536377 -122.6328125 342.125 C-122.37854492 340.21944336 -122.37854492 340.21944336 -122.11914062 338.27539062 C-121.30632383 332.24571166 -120.42660243 326.2315693 -119.47265625 320.22265625 C-118.76670177 315.68773752 -118.27674521 311.2703061 -118.0703125 306.6875 C-117.56401679 296.82530738 -116.55471738 287.01148816 -115.5703125 277.1875 C-116.12380371 277.20844727 -116.67729492 277.22939453 -117.24755859 277.25097656 C-128.98419524 277.63690551 -138.17231318 277.79069958 -148.3828125 271.4375 C-154.78275628 264.85470068 -157.56878296 257.57624642 -158.0078125 248.4375 C-157.18722793 213.62126906 -136.54790116 163.65388299 -117.5703125 135.1875 C-118.04082031 134.52105469 -118.51132813 133.85460937 -118.99609375 133.16796875 C-126.5735757 121.95078533 -128.87393971 111.74226021 -127.5703125 98.1875 C-126.71039462 94.52773046 -125.37018886 91.4782378 -123.5703125 88.1875 C-122.92835937 86.93646484 -122.92835937 86.93646484 -122.2734375 85.66015625 C-118.69463063 79.37879676 -114.17735003 74.70487029 -109.0078125 69.75 C-98.13806433 59.15265351 -95.17268034 49.06768158 -91.88183594 34.48461914 C-88.7671788 21.06044687 -83.57271662 10.88517138 -73.5703125 1.1875 C-72.99539062 0.60355469 -72.42046875 0.01960937 -71.828125 -0.58203125 C-52.55453099 -18.79511649 -19.96021621 -14.07528924 0 0 Z " fill="#D2E8FE" transform="translate(223.5703125,172.8125)"/>
<path d="M0 0 C4.89526168 4.00668283 7.75429708 7.96552374 10.3046875 13.73046875 C11.71362479 16.80762694 13.50440534 19.51485736 15.4140625 22.30078125 C17.4469418 26.07724549 17.56195522 30.20885262 17.67578125 34.42578125 C17.70865234 35.41126953 17.74152344 36.39675781 17.77539062 37.41210938 C17.83623712 39.45888179 17.89357025 41.50576188 17.94726562 43.55273438 C18.20362443 50.97746589 18.47402869 58.12459249 23.0546875 64.3125 C24.77568516 66.92472859 25.44787615 68.28208098 26.0546875 71.4375 C25.4296875 74.1875 25.4296875 74.1875 23.1171875 76.5 C20.4296875 78.1875 20.4296875 78.1875 17.4296875 79.1875 C17.28273437 80.8890625 17.28273437 80.8890625 17.1328125 82.625 C15.42927129 100.47360077 15.42927129 100.47360077 8.8046875 106.625 C4.86849508 109.21460028 2.15516239 109.39522927 -2.4765625 109.61328125 C-4.70426804 109.97312008 -4.70426804 109.97312008 -5.67529297 111.91186523 C-6.67491204 114.45344988 -6.88468354 116.44697499 -6.984375 119.171875 C-7.04238281 120.57373047 -7.04238281 120.57373047 -7.1015625 122.00390625 C-7.1325 122.97199219 -7.1634375 123.94007813 -7.1953125 124.9375 C-7.25332031 126.41283203 -7.25332031 126.41283203 -7.3125 127.91796875 C-7.40659676 130.34096037 -7.49223578 132.76394796 -7.5703125 135.1875 C-6.508125 135.15914062 -5.4459375 135.13078125 -4.3515625 135.1015625 C11.82464588 135.4692036 28.15452336 151.73568614 40.4296875 161.1875 C41.02104492 161.64237793 41.61240234 162.09725586 42.22167969 162.56591797 C49.97777062 168.55250029 57.55972641 174.73875824 65.10424805 180.98901367 C70.13064068 185.14471954 75.22539532 189.19824588 80.38037109 193.19287109 C85.11624757 196.88396786 89.68313257 200.75754572 94.16894531 204.7487793 C96.90059555 207.12601768 98.89497855 208.47678282 102.4296875 209.1875 C102.78571045 208.69572266 103.1417334 208.20394531 103.50854492 207.69726562 C111.82075435 196.24388382 120.3484261 185.04262359 129.4296875 174.1875 C130.15285156 173.31996094 130.87601562 172.45242188 131.62109375 171.55859375 C135.88208623 166.56136067 135.88208623 166.56136067 138.78125 164.58203125 C142.55758751 161.167732 144.48117179 157.10938532 146.8046875 152.625 C150.15717196 146.24650849 153.69106471 140.10337289 157.60449219 134.05102539 C159.50019248 131.07688565 161.31525597 128.06535836 163.11328125 125.03125 C163.73138672 123.98839844 164.34949219 122.94554687 164.98632812 121.87109375 C166.23922487 119.75040664 167.48923187 117.62800959 168.73632812 115.50390625 C180.00222505 96.53593411 180.00222505 96.53593411 186.4296875 92.1875 C187.7496875 92.8475 189.0696875 93.5075 190.4296875 94.1875 C190.98151653 101.7828134 189.39324915 106.54650005 185.9296875 113.25 C185.50042969 114.11560547 185.07117188 114.98121094 184.62890625 115.87304688 C183.57809399 117.98634708 182.51180116 120.09010535 181.4296875 122.1875 C182.16832031 122.26484375 182.90695312 122.3421875 183.66796875 122.421875 C187.11533335 123.37758004 188.30825239 124.74002069 190.6171875 127.4375 C191.62845703 128.58992188 191.62845703 128.58992188 192.66015625 129.765625 C196.89469452 135.56124029 197.28799267 141.21264111 196.4296875 148.1875 C192.75972002 160.81901599 184.85799932 173.23155667 176.4296875 183.1875 C177.4196875 184.5075 178.4096875 185.8275 179.4296875 187.1875 C168.44626578 208.31776832 155.07363356 228.21979807 139.4296875 246.1875 C138.92099121 246.77982422 138.41229492 247.37214844 137.88818359 247.98242188 C128.9402732 258.33987632 116.94278622 271.26342234 102.4609375 272.42578125 C80.11364906 272.89546983 61.11756785 257.63093602 43.3046875 245.5625 C41.65278763 244.45116284 40.00044543 243.34048288 38.34765625 242.23046875 C34.36989068 239.55698211 30.39810981 236.87483369 26.4296875 234.1875 C26.50485596 234.84194092 26.58002441 235.49638184 26.6574707 236.1706543 C28.36862449 251.22182334 29.83493609 266.27688812 31.0546875 281.375 C31.14793808 282.51912857 31.14793808 282.51912857 31.24307251 283.68637085 C31.90354214 291.82865628 32.48898715 299.96819003 32.9375 308.125 C33.29109877 314.45403276 33.84033444 320.71682614 34.6796875 327 C34.80899658 328.00780518 34.93830566 329.01561035 35.0715332 330.05395508 C35.81986367 335.81123703 36.62247699 341.55931029 37.45703125 347.3046875 C42.74082087 383.89533108 46.82210178 420.66465774 50.76171875 457.421875 C50.88857307 458.59330048 50.88857307 458.59330048 51.01799011 459.78839111 C52.51741382 473.99626704 53.66504621 488.22456999 54.3984375 502.4921875 C54.43893093 503.26584467 54.47942436 504.03950184 54.52114487 504.83660316 C55.81263355 529.78998332 56.548463 554.76877316 57.35527074 579.74147099 C57.53294689 585.23056231 57.71573319 590.71947455 57.89974797 596.20835656 C58.10235794 602.25563457 58.30135623 608.30302577 58.49883652 614.3504734 C58.58167282 616.87747921 58.66537747 619.40445673 58.75003433 621.93140221 C58.86784433 625.46288335 58.98153928 628.99447555 59.09423828 632.52612305 C59.12849915 633.52955246 59.16276001 634.53298187 59.19805908 635.56681824 C59.49512808 645.11931262 59.4296875 654.61264471 59.4296875 664.1875 C34.0196875 664.1875 8.6096875 664.1875 -17.5703125 664.1875 C-18.69527345 655.1878124 -18.69527345 655.1878124 -18.86019897 652.04905701 C-18.89930201 651.33197602 -18.93840504 650.61489504 -18.97869301 649.87608433 C-19.01714521 649.11832171 -19.05559742 648.3605591 -19.09521484 647.57983398 C-19.13937216 646.75596915 -19.18352947 645.93210432 -19.22902489 645.08327389 C-19.37403885 642.36684516 -19.51510674 639.6502261 -19.65625 636.93359375 C-19.75842856 635.00890538 -19.86091284 633.08423323 -19.96368408 631.15957642 C-20.18081069 627.08741948 -20.39650878 623.01519055 -20.61114502 618.94290161 C-21.16562369 608.43795844 -21.73543347 597.93383855 -22.3046875 587.4296875 C-22.36031986 586.40241861 -22.41595222 585.37514973 -22.47327042 584.31675148 C-23.69512055 561.66626328 -23.69512055 561.66626328 -25.02618408 539.02200317 C-25.13629851 537.21723521 -25.24350464 535.41228669 -25.34735107 533.60714722 C-26.34989852 516.27503832 -28.07512151 499.09810635 -33.3828125 482.5 C-33.72957031 481.37295654 -34.07632813 480.24591309 -34.43359375 479.0847168 C-37.3303185 469.73758774 -40.37806316 460.43776799 -43.5703125 451.1875 C-44.76200685 456.89957164 -45.81591414 462.60774079 -46.68742371 468.37702942 C-48.5472405 480.37373659 -50.9997943 492.20514199 -53.6171875 504.0546875 C-53.81200525 504.93999586 -54.00682301 505.82530422 -54.20754433 506.73744011 C-58.40598871 525.78468109 -62.96236414 544.73851468 -67.62489319 563.67667389 C-68.49008907 567.19439111 -69.35147692 570.71303691 -70.21296883 574.23166275 C-77.5616852 604.24277931 -85.01824756 634.2269114 -92.5703125 664.1875 C-105.46419255 662.81051902 -118.16879532 660.57658222 -130.91992188 658.24633789 C-134.35466968 657.61872207 -137.79049984 656.99732624 -141.2265625 656.37695312 C-143.41933497 655.97952036 -145.61204567 655.58174661 -147.8046875 655.18359375 C-148.82753845 654.99816513 -149.8503894 654.81273651 -150.90423584 654.62168884 C-152.32787445 654.36120506 -152.32787445 654.36120506 -153.78027344 654.09545898 C-154.61137634 653.94382797 -155.44247925 653.79219696 -156.29876709 653.63597107 C-158.41091594 653.21896965 -160.48737265 652.73040026 -162.5703125 652.1875 C-161.26553225 639.79893091 -159.07660614 627.64575274 -156.7177124 615.42001343 C-155.82075962 610.76828119 -154.9365392 606.11415135 -154.05123901 601.46018982 C-153.35462443 597.79925293 -152.65634726 594.13863555 -151.95800781 590.47802734 C-146.63730062 562.55383739 -141.3941301 534.61206088 -136.64532471 506.58413696 C-136.3137743 504.62940312 -135.97975195 502.67508625 -135.64276123 500.72128296 C-130.96726412 473.51989794 -128.9701628 446.23449574 -127.56835938 418.70721436 C-127.36274222 414.70553335 -127.14751585 410.70436895 -126.93359375 406.703125 C-126.29546716 394.69550843 -125.65829141 382.6892072 -125.18412781 370.67378235 C-124.79860029 361.06203481 -123.96990355 351.6536377 -122.6328125 342.125 C-122.37854492 340.21944336 -122.37854492 340.21944336 -122.11914062 338.27539062 C-121.30632383 332.24571166 -120.42660243 326.2315693 -119.47265625 320.22265625 C-118.76670177 315.68773752 -118.27674521 311.2703061 -118.0703125 306.6875 C-117.56401679 296.82530738 -116.55471738 287.01148816 -115.5703125 277.1875 C-116.12380371 277.20844727 -116.67729492 277.22939453 -117.24755859 277.25097656 C-128.98419524 277.63690551 -138.17231318 277.79069958 -148.3828125 271.4375 C-154.78275628 264.85470068 -157.56878296 257.57624642 -158.0078125 248.4375 C-157.18722793 213.62126906 -136.54790116 163.65388299 -117.5703125 135.1875 C-118.04082031 134.52105469 -118.51132813 133.85460937 -118.99609375 133.16796875 C-126.5735757 121.95078533 -128.87393971 111.74226021 -127.5703125 98.1875 C-126.71039462 94.52773046 -125.37018886 91.4782378 -123.5703125 88.1875 C-122.92835937 86.93646484 -122.92835937 86.93646484 -122.2734375 85.66015625 C-118.69463063 79.37879676 -114.17735003 74.70487029 -109.0078125 69.75 C-98.13806433 59.15265351 -95.17268034 49.06768158 -91.88183594 34.48461914 C-88.7671788 21.06044687 -83.57271662 10.88517138 -73.5703125 1.1875 C-72.99539062 0.60355469 -72.42046875 0.01960937 -71.828125 -0.58203125 C-52.55453099 -18.79511649 -19.96021621 -14.07528924 0 0 Z " fill="#FEC43F" transform="translate(223.5703125,172.8125)"/>
<path d="M0 0 C1.31349368 -0.00570851 1.31349368 -0.00570851 2.65352258 -0.01153234 C5.60234579 -0.02187948 8.55097762 -0.01793617 11.49981403 -0.01409245 C13.62952609 -0.01854315 15.75923649 -0.02385664 17.88894445 -0.02996117 C23.75296792 -0.0441717 29.61693847 -0.04580388 35.4809767 -0.04536426 C41.80085039 -0.04700978 48.12070211 -0.06007134 54.44056416 -0.07155704 C67.5453264 -0.09323641 80.65006867 -0.1018154 93.75484623 -0.10659205 C94.82338389 -0.10698381 94.82338389 -0.10698381 95.91350818 -0.10738349 C96.62729194 -0.10764376 97.34107571 -0.10790404 98.07648928 -0.1081722 C105.98486538 -0.11125396 113.89323812 -0.11775853 121.8016119 -0.12438488 C145.6865186 -0.14403359 169.57142168 -0.16043741 193.45633698 -0.16326141 C194.22039346 -0.16335547 194.98444995 -0.16344954 195.77165967 -0.16354645 C198.86807262 -0.16392493 201.96448556 -0.16428893 205.06089851 -0.16464943 C207.39147391 -0.16492115 209.72204931 -0.16519782 212.0526247 -0.16547489 C212.82273635 -0.16556291 213.592848 -0.16565094 214.38629637 -0.16574163 C238.58174904 -0.16864684 262.77712182 -0.1907402 286.97254658 -0.22699833 C314.15201923 -0.26772711 341.33143744 -0.29142 368.51094228 -0.29172093 C371.40940687 -0.29181775 374.30787144 -0.29198447 377.20633602 -0.29220104 C378.27685912 -0.29226721 378.27685912 -0.29226721 379.36900895 -0.29233472 C390.85302316 -0.29345448 402.33695732 -0.31086195 413.82094575 -0.33402036 C425.36428814 -0.35686652 436.90748361 -0.36066185 448.45084765 -0.34647106 C454.70422178 -0.33928974 460.95731864 -0.34021274 467.21066189 -0.36288166 C472.93574285 -0.3834369 478.66033275 -0.38090303 484.3854082 -0.36000682 C486.45608611 -0.35650536 488.52679921 -0.36144952 490.59743097 -0.37571125 C512.14857968 -0.5145759 512.14857968 -0.5145759 520.22016877 7.01547343 C549.41940699 37.41102759 527.33851337 91.11169065 527.33851337 133.26006222 C344.18851337 133.26006222 161.03851337 133.26006222 -27.66148663 133.26006222 C-27.66148663 15.97801094 -27.66148663 15.97801094 -21.22398663 8.38506222 C-20.37836163 7.68381222 -19.53273663 6.98256222 -18.66148663 6.26006222 C-17.83648663 5.53818722 -17.01148663 4.81631222 -16.16148663 4.07256222 C-10.95164635 0.29542802 -6.29805033 -0.02961292 0 0 Z " fill="#095BE8" transform="translate(253.6614866256714,8.739937782287598)"/>
<path d="M0 0 C9.40958763 7.71776278 17.41525448 17.93716831 18.875 30.375 C20.61867593 54.35725044 10.8951501 72.18711872 -1.43359375 92.02734375 C-3.90624342 96.00807187 -6.32976896 100.01263334 -8.6875 104.0625 C-9.30753906 105.11824219 -9.92757812 106.17398438 -10.56640625 107.26171875 C-14.2431712 114.6060337 -16.04621868 123.55941914 -13.40234375 131.5625 C-10.67242115 136.69077564 -7.1734854 139.60198664 -1.8125 141.625 C4.73972656 142.95765625 9.53932856 142.52740413 15.9375 140.875 C28.71443929 137.78070068 40.32570132 138.35693339 51.75 145.0625 C57.91188308 151.76807865 59.6674096 157.63664523 59.28515625 166.76171875 C57.2677083 184.53447448 46.46540569 199.98939708 32.69140625 210.99609375 C25.68493133 216.30844739 18.14725054 220.51538551 10.42993164 224.69360352 C-1.7728194 231.36954215 -14.24730916 239.81256784 -19.50390625 253.24609375 C-20.8020693 257.69577212 -20.5490489 261.07635024 -19.125 265.4375 C-15.56044982 270.67293308 -10.38622096 273.64899978 -5 276.8125 C-0.21890209 279.79832399 4.01581884 282.97891229 5.453125 288.66015625 C6.24347581 299.99450544 -1.67808578 308.4015142 -8.63378906 316.42871094 C-11.99340332 320.22395298 -15.51180166 323.82094627 -19.125 327.375 C-17.475 327.705 -15.825 328.035 -14.125 328.375 C-14.00887844 340.55486164 -14.10826897 352.72657565 -14.44338989 364.90234375 C-14.48066235 366.2834542 -14.51513888 367.66464339 -14.54660034 369.04589844 C-15.11089371 393.21248702 -20.56735765 412.99119569 -38.125 430.375 C-53.94143153 445.17274611 -72.43454421 449.94905036 -93.5 449.64453125 C-112.74917583 448.99065195 -130.1447602 438.96360683 -143.25 425.25 C-156.51926098 409.67070573 -161.50150656 391.39046833 -161.3203125 371.26953125 C-161.3174826 370.0643132 -161.31465271 368.85909515 -161.31173706 367.61735535 C-161.3006352 363.80729808 -161.27554934 359.99748497 -161.25 356.1875 C-161.23995728 353.58789404 -161.2308337 350.98828437 -161.22265625 348.38867188 C-161.20243916 342.05061388 -161.16327084 335.71307689 -161.125 329.375 C-151.885 329.375 -142.645 329.375 -133.125 329.375 C-133.78947188 308.11189977 -140.88109734 291.61890266 -156.125 276.375 C-156.93324219 275.56675781 -156.93324219 275.56675781 -157.7578125 274.7421875 C-161.98866995 270.8514995 -166.87320669 267.95223823 -171.71826172 264.90209961 C-188.03183026 254.51621271 -201.88988175 241.41698069 -207.67578125 222.58203125 C-208.99007594 216.1248443 -209.21625115 208.86305262 -206.5625 202.8125 C-205.3559375 201.6059375 -205.3559375 201.6059375 -204.125 200.375 C-203.238125 199.42625 -202.35125 198.4775 -201.4375 197.5 C-195.51362623 193.57193778 -186.91722977 194.52308277 -180.125 195.375 C-176.5576333 196.25457295 -173.11771475 197.33671546 -169.625 198.47265625 C-163.30052825 200.10318412 -154.60769733 201.27879854 -148.73828125 198.0703125 C-146.78204585 196.31991713 -146.78204585 196.31991713 -146.4375 192.8125 C-147.11103556 181.25715555 -160.84051301 170.46353149 -168.78125 162.83984375 C-182.46264058 149.66368214 -197.53124463 132.64211232 -198.4609375 112.6328125 C-198.48458944 110.92198894 -198.49741933 109.2109851 -198.5 107.5 C-198.53673828 106.22962891 -198.53673828 106.22962891 -198.57421875 104.93359375 C-198.61865143 95.2620801 -194.57894987 87.45507933 -188.125 80.375 C-180.43927049 74.29046414 -172.64542491 73.50348949 -163.125 74.375 C-151.31936371 77.02848756 -142.07340069 84.23686207 -133.48046875 92.37695312 C-123.67522328 101.60466451 -115.62605159 105.00167824 -102.24609375 104.6875 C-95.73475073 104.33687798 -92.0884983 102.24717279 -87.4375 97.8125 C-79.51404215 87.14117629 -77.66231106 74.07722238 -75.74926758 61.30224609 C-72.46180153 39.55835088 -66.46692624 19.78215652 -48.61328125 5.34375 C-34.34457563 -4.9699239 -15.84607826 -11.14177378 0 0 Z " fill="#81B8FE" transform="translate(585.125,434.625)"/>
<path d="M0 0 C0.67957764 0.12270264 1.35915527 0.24540527 2.05932617 0.37182617 C3.88980828 0.70232734 5.72029389 1.03280914 7.55078125 1.36328125 C9.94653757 1.80553298 12.33963865 2.26231668 14.73046875 2.73046875 C34.53774258 6.6047824 54.2588304 8.18291879 74.43310547 8.13037109 C76.8656237 8.12502062 79.29795613 8.13034963 81.73046875 8.13671875 C97.15972431 8.14568041 112.23353729 7.35656807 127.5 5 C129.86439351 4.6445683 132.22897328 4.29037314 134.59375 3.9375 C135.686875 3.77378906 136.78 3.61007812 137.90625 3.44140625 C141.93035897 2.86725939 145.9565878 2.41470894 150 2 C151.58262485 9.47206699 152.81581826 16.9667293 153.91796875 24.5234375 C154.09095993 25.7024765 154.26395111 26.8815155 154.44218445 28.09628296 C156.20899837 40.25471575 157.79714101 52.43296184 159.3125 64.625 C159.53019547 66.36852753 159.53019547 66.36852753 159.75228882 68.14727783 C162.20285057 87.83888378 164.45077084 107.5502525 166.58535385 127.27825165 C166.80846176 129.33772372 167.03285184 131.39705276 167.25747681 133.45635986 C170.53016297 163.52981169 172.42101044 193.44570628 173.40880966 223.66693878 C173.56344718 228.36516373 173.72404609 233.06318519 173.8840332 237.76123047 C174.10866952 244.37340131 174.33121664 250.98563625 174.55103397 257.59796906 C174.87601114 267.37122718 175.21298697 277.14397946 175.56202316 286.91640663 C175.72847999 291.58574536 175.89236421 296.25517521 176.05664062 300.92459106 C176.14247407 303.35176807 176.22919482 305.77891389 176.31689453 308.20602417 C176.43709946 311.54610073 176.55303656 314.88630089 176.66796875 318.2265625 C176.71929207 319.61043404 176.71929207 319.61043404 176.77165222 321.02226257 C177.08487199 330.36043416 177 339.63642623 177 349 C151.59 349 126.18 349 100 349 C98.87503905 340.0003124 98.87503905 340.0003124 98.71011353 336.86155701 C98.67101049 336.14447602 98.63190746 335.42739504 98.59161949 334.68858433 C98.55316729 333.93082171 98.51471508 333.1730591 98.47509766 332.39233398 C98.43094034 331.56846915 98.38678303 330.74460432 98.34128761 329.89577389 C98.19627365 327.17934516 98.05520576 324.4627261 97.9140625 321.74609375 C97.81188394 319.82140538 97.70939966 317.89673323 97.60662842 315.97207642 C97.38950181 311.89991948 97.17380372 307.82769055 96.95916748 303.75540161 C96.40468881 293.25045844 95.83487903 282.74633855 95.265625 272.2421875 C95.20999264 271.21491861 95.15436028 270.18764973 95.09704208 269.12925148 C93.87519195 246.47876328 93.87519195 246.47876328 92.54412842 223.83450317 C92.43401399 222.02973521 92.32680786 220.22478669 92.22296143 218.41964722 C91.22041398 201.08753832 89.49519099 183.91060635 84.1875 167.3125 C83.84074219 166.18545654 83.49398437 165.05841309 83.13671875 163.8972168 C80.239994 154.55008774 77.19224934 145.25026799 74 136 C72.80830565 141.71207164 71.75439836 147.42024079 70.88288879 153.18952942 C69.023072 165.18623659 66.5705182 177.01764199 63.953125 188.8671875 C63.75830725 189.75249586 63.56348949 190.63780422 63.36276817 191.54994011 C59.16432379 210.59718109 54.60794836 229.55101468 49.94541931 248.48917389 C49.08022343 252.00689111 48.21883558 255.52553691 47.35734367 259.04416275 C40.0086273 289.05527931 32.55206494 319.0394114 25 349 C12.10611995 347.62301902 -0.59848282 345.38908222 -13.34960938 343.05883789 C-16.78435718 342.43122207 -20.22018734 341.80982624 -23.65625 341.18945312 C-25.84902247 340.79202036 -28.04173317 340.39424661 -30.234375 339.99609375 C-31.25722595 339.81066513 -32.2800769 339.62523651 -33.33392334 339.43418884 C-34.75756195 339.17370506 -34.75756195 339.17370506 -36.20996094 338.90795898 C-37.04106384 338.75632797 -37.87216675 338.60469696 -38.72845459 338.44847107 C-40.84060344 338.03146965 -42.91706015 337.54290026 -45 337 C-43.69521975 324.61143091 -41.50629364 312.45825274 -39.1473999 300.23251343 C-38.25044712 295.58078119 -37.3662267 290.92665135 -36.48092651 286.27268982 C-35.78431193 282.61175293 -35.08603476 278.95113555 -34.38769531 275.29052734 C-29.06698812 247.36633739 -23.8238176 219.42456088 -19.07501221 191.39663696 C-18.7434618 189.44190312 -18.40943945 187.48758625 -18.07244873 185.53378296 C-13.39695162 158.33239794 -11.3998503 131.04699574 -9.99804688 103.51971436 C-9.79242972 99.51803335 -9.57720502 95.51686886 -9.36328125 91.515625 C-8.72516458 79.50905541 -8.08887771 67.50364578 -7.61065674 55.48944092 C-7.22189015 45.86505546 -6.42503076 36.42179077 -5.125 26.875 C-4.88330078 24.956875 -4.88330078 24.956875 -4.63671875 23 C-3.60370868 15.16834229 -2.10641861 7.61388086 0 0 Z " fill="#181F49" transform="translate(106,488)"/>
<path d="M0 0 C1.89164383 0.54270538 1.89164383 0.54270538 3.82150269 1.09637451 C4.78291168 1.37297913 5.74432068 1.64958374 6.73486328 1.93457031 C6.86828867 9.87407784 6.99879278 17.81362671 7.12601471 25.75323582 C7.18523399 29.4438308 7.24529461 33.13440719 7.30761719 36.82495117 C7.65083645 57.19688271 7.80517706 77.55966447 7.73486328 97.93457031 C6.9922374 97.5179866 6.24961151 97.10140289 5.48448181 96.67219543 C4.50355057 96.12818588 3.52261932 95.58417633 2.51196289 95.02368164 C1.54246201 94.48334793 0.57296112 93.94301422 -0.42591858 93.38630676 C-4.10639557 91.50442156 -7.67725208 90.46052654 -11.70263672 89.62207031 C-12.38261719 89.46673828 -13.06259766 89.31140625 -13.76318359 89.15136719 C-15.59458156 88.73424527 -17.42970679 88.33357682 -19.26513672 87.93457031 C-19.91683838 87.75804932 -20.56854004 87.58152832 -21.23999023 87.3996582 C-34.6094051 84.32928625 -49.94409723 87.26886542 -61.59716797 94.07910156 C-76.91256539 104.73036624 -83.19454069 120.31540886 -87.08496094 137.90185547 C-90.20801813 151.97166018 -94.76370217 159.70794801 -105.0769043 169.68530273 C-110.11199829 174.60905724 -114.00337634 179.65974682 -117.26513672 185.93457031 C-117.69439453 186.71832031 -118.12365234 187.50207031 -118.56591797 188.30957031 C-123.52182615 198.66418259 -122.19164893 210.33116432 -118.55419922 220.90332031 C-116.57994904 225.54579953 -114.09001004 229.76317404 -111.26513672 233.93457031 C-111.61705078 234.42183594 -111.96896484 234.90910156 -112.33154297 235.41113281 C-119.89236111 246.26870456 -125.02096902 258.15158242 -129.45263672 270.55957031 C-129.91419874 271.83711581 -130.37587194 273.11462115 -130.83764648 274.39208984 C-134.5867148 284.82030147 -138.16774616 295.30712991 -141.70263672 305.80957031 C-141.95371185 306.55039856 -142.20478699 307.29122681 -142.46347046 308.05450439 C-152.30172397 335.35165502 -152.30172397 335.35165502 -147.26513672 362.93457031 C-144.11130554 368.30776418 -138.36803634 371.72274571 -132.42431641 373.47827148 C-130.08932772 373.97172398 -127.88327957 374.14401262 -125.49951172 374.25097656 C-124.61005859 374.29287109 -123.72060547 374.33476562 -122.80419922 374.37792969 C-121.42361328 374.4369043 -121.42361328 374.4369043 -120.01513672 374.49707031 C-119.07927734 374.54025391 -118.14341797 374.5834375 -117.17919922 374.62792969 C-114.87465031 374.73375081 -112.56999833 374.83583588 -110.26513672 374.93457031 C-109.98962407 383.46015614 -110.53094299 391.67661746 -111.55371094 400.13305664 C-111.98122529 403.75549776 -112.26182607 407.17033587 -112.21044922 410.82910156 C-112.14223586 415.93183962 -113.18333849 420.81521928 -114.14013672 425.80957031 C-118.34181407 447.78278668 -119.03173393 469.91660834 -119.94238281 492.20776367 C-120.08605904 495.71072486 -120.2386962 499.21320555 -120.39671326 502.71554756 C-120.4824015 504.67790091 -120.55751752 506.64070674 -120.63244629 508.60350037 C-120.6859021 509.78646194 -120.73935791 510.96942352 -120.79443359 512.18823242 C-120.83725464 513.22870224 -120.88007568 514.26917206 -120.92419434 515.34117126 C-121.26513672 517.93457031 -121.26513672 517.93457031 -123.26513672 520.93457031 C-147.45604889 518.37440898 -168.58344273 502.69091408 -183.60791016 484.29003906 C-207.46087647 453.48542271 -214.856375 413.48276391 -210.51513672 375.37207031 C-210.13189505 372.88751717 -209.71507228 370.40791551 -209.26513672 367.93457031 C-209.15218262 367.26828613 -209.03922852 366.60200195 -208.92285156 365.91552734 C-204.68790315 341.50929853 -194.15286292 319.13817274 -180.64794922 298.57519531 C-168.52510285 280.11101116 -158.05049357 261.67704754 -153.26513672 239.93457031 C-153.02174561 238.8548999 -153.02174561 238.8548999 -152.7734375 237.75341797 C-150.84072362 228.8717101 -150.00172984 220.14743193 -149.95263672 211.05957031 C-149.94707764 210.2477832 -149.94151855 209.43599609 -149.93579102 208.59960938 C-150.08517802 195.35651502 -151.89127017 182.11433004 -153.77294922 169.02441406 C-153.90435806 168.1091394 -154.03576691 167.19386475 -154.17115784 166.25085449 C-154.70977774 162.5220197 -155.25161354 158.7938193 -155.81152344 155.06811523 C-157.726808 142.25448159 -158.65474247 129.88729569 -158.26513672 116.93457031 C-158.23621338 115.62593018 -158.20729004 114.31729004 -158.17749023 112.96899414 C-157.16993686 79.19748018 -141.94699762 47.28098323 -117.80029297 24.10644531 C-102.49583562 10.00275354 -82.40674523 1.33034357 -62.26513672 -3.06542969 C-61.14494141 -3.31035156 -60.02474609 -3.55527344 -58.87060547 -3.80761719 C-39.15544137 -7.28816611 -19.10816961 -5.48876735 0 0 Z " fill="#D2E8FE" transform="translate(218.26513671875,75.0654296875)"/>
<path d="M0 0 C0.33 0 0.66 0 1 0 C1 6.6 1 13.2 1 20 C27.07 20 53.14 20 80 20 C80 46.1375 80 46.1375 79.625 58.625 C79.59369679 59.96484251 79.56244697 61.30468626 79.53125 62.64453125 C78.83776847 86.06109087 72.95542631 105.2124492 56 122 C40.18356847 136.79774611 21.69045579 141.57405036 0.625 141.26953125 C-18.62417583 140.61565195 -36.0197602 130.58860683 -49.125 116.875 C-62.39426098 101.29570573 -67.37650656 83.01546833 -67.1953125 62.89453125 C-67.1924826 61.6893132 -67.18965271 60.48409515 -67.18673706 59.24235535 C-67.1756352 55.43229808 -67.15054934 51.62248497 -67.125 47.8125 C-67.11495728 45.21289404 -67.1058337 42.61328437 -67.09765625 40.01367188 C-67.07743916 33.67561388 -67.03827084 27.33807689 -67 21 C-57.76 21 -48.52 21 -39 21 C-39 19.02 -39 17.04 -39 15 C-38.67 15 -38.34 15 -38 15 C-38 16.65 -38 18.3 -38 20 C-25.46 20 -12.92 20 0 20 C0 13.4 0 6.8 0 0 Z " fill="#A4CEFE" transform="translate(491,743)"/>
<path d="M0 0 C5.24726815 4.43478792 8.74366647 8.19869668 9.859375 15.171875 C8.60563169 24.88838565 3.8059065 32.86167844 -2.640625 40.046875 C-3.259375 40.74683594 -3.878125 41.44679687 -4.515625 42.16796875 C-9.11295217 47.07116648 -14.252242 51.69156208 -20.640625 54.046875 C-23.890625 52.921875 -23.890625 52.921875 -26.640625 51.046875 C-30.64926057 50.46228231 -32.29348094 50.85995128 -35.890625 52.796875 C-39.24243327 55.53926358 -40.44066848 57.32776832 -40.94140625 61.6328125 C-40.96896595 68.19202214 -40.27234232 72.36247075 -36.390625 77.796875 C-33.74051935 79.6898076 -30.75697034 80.19957373 -27.640625 81.046875 C-27.54010664 85.08114087 -27.46839986 89.11490045 -27.42089844 93.15014648 C-27.40105233 94.5164869 -27.37396586 95.88274559 -27.33886719 97.2487793 C-26.9268612 113.7229598 -31.02300988 127.73432641 -42.34375 139.90625 C-51.94653201 148.85578154 -62.85363728 152.64180137 -75.828125 152.546875 C-76.73796143 152.54187988 -77.64779785 152.53688477 -78.58520508 152.53173828 C-92.30200954 152.18166583 -105.24259568 147.19483259 -115.390625 137.796875 C-125.07253173 127.38425833 -128.32434669 115.63076064 -127.984375 101.62109375 C-127.48925324 96.4729527 -126.10877124 92.55941949 -123.640625 88.046875 C-123.21265625 87.21285156 -122.7846875 86.37882812 -122.34375 85.51953125 C-118.76494313 79.23817176 -114.24766253 74.56424529 -109.078125 69.609375 C-98.20837683 59.01202851 -95.24299284 48.92705658 -91.95214844 34.34399414 C-88.8374913 20.91982187 -83.64302912 10.74454638 -73.640625 1.046875 C-73.06570312 0.46292969 -72.49078125 -0.12101563 -71.8984375 -0.72265625 C-52.79598311 -18.77401865 -19.63404989 -14.52222625 0 0 Z " fill="#181F49" transform="translate(223.640625,172.953125)"/>
<path d="M0 0 C0.67087925 -0.00350607 1.3417585 -0.00701215 2.03296742 -0.01062447 C4.28515571 -0.01994209 6.53708563 -0.01501431 8.78928471 -0.01015663 C10.41862212 -0.0138927 12.04795773 -0.01849405 13.6772905 -0.02388728 C18.15805224 -0.03613781 22.63873943 -0.0358544 27.11951411 -0.03349853 C31.95054538 -0.03309088 36.78155258 -0.04412438 41.61257267 -0.05361366 C51.07820023 -0.07023526 60.54380288 -0.07572371 70.00944381 -0.07683842 C77.70140186 -0.07778822 85.39335168 -0.08189513 93.08530712 -0.08823967 C114.8837003 -0.10585426 136.68207376 -0.11507805 158.48047411 -0.11357872 C160.24366395 -0.11345885 160.24366395 -0.11345885 162.04247379 -0.11333656 C163.80781099 -0.11321392 163.80781099 -0.11321392 165.60881156 -0.1130888 C184.69042703 -0.11227556 203.77196362 -0.13142234 222.85355627 -0.1596133 C242.43686407 -0.18831772 262.02013337 -0.20215498 281.60346276 -0.20042574 C292.60191431 -0.19976106 303.60028315 -0.20528785 314.59871578 -0.22678185 C323.96127547 -0.24496141 333.32371494 -0.24936747 342.68628459 -0.235763 C347.46475059 -0.22921738 352.24298575 -0.22917351 357.02143002 -0.2464695 C361.39423568 -0.26213477 365.76662621 -0.25940401 370.13942135 -0.24190123 C371.72281548 -0.23881687 373.3062401 -0.24251749 374.8895983 -0.25362138 C377.04006267 -0.26770568 379.18906337 -0.25718751 381.33947754 -0.24050903 C382.5344051 -0.24094377 383.72933266 -0.24137851 384.96047014 -0.24182642 C389.87328829 0.50750817 393.01366752 2.80234318 396.17015934 6.56976891 C397.62717126 10.25515199 397.25167488 12.45294421 396.23265934 16.25726891 C394.40926882 18.96294517 393.15808498 20.79455609 390.23265934 22.25726891 C388.08091465 22.35625385 385.92601057 22.38830088 383.77199268 22.39148998 C383.09782147 22.39384221 382.42365026 22.39619444 381.72904962 22.39861795 C379.44766455 22.40532719 377.16633618 22.40484915 374.88494205 22.40443993 C373.24169587 22.40773736 371.59845049 22.41146266 369.95520616 22.41558141 C365.42207937 22.42562328 360.88896582 22.4293217 356.35582948 22.43197072 C351.47362626 22.43586729 346.5914336 22.44544605 341.7092371 22.45418358 C329.91016415 22.47396614 318.11109032 22.48401639 306.31200492 22.49291137 C300.75997446 22.49729127 295.20794496 22.50265884 289.65591526 22.50790024 C271.20722877 22.52491418 252.75854288 22.53940935 234.30984974 22.54664898 C229.51995944 22.54855897 224.73006915 22.55047929 219.94017887 22.55243492 C218.74962844 22.55291866 217.55907801 22.5534024 216.3324503 22.5539008 C197.03725298 22.56220482 177.74211758 22.58754727 158.44694731 22.6200156 C138.65129653 22.65305539 118.85567725 22.67109494 99.05999875 22.67429322 C87.93965425 22.67646116 76.81940006 22.68525121 65.69908237 22.71075439 C56.230323 22.73241933 46.76167586 22.74053258 37.29289451 22.73078761 C32.45976361 22.72623071 27.62686446 22.72820963 22.79376507 22.74754906 C18.37088732 22.76509453 13.94841187 22.76425352 9.52553037 22.74865177 C7.92387407 22.74626253 6.32219053 22.75066697 4.72057602 22.76248042 C2.54545624 22.77753266 0.37177426 22.76797517 -1.80330944 22.75225353 C-3.01201427 22.75323034 -4.22071909 22.75420715 -5.46605134 22.75521356 C-9.45209785 22.15398466 -11.63795305 20.75156565 -14.76734066 18.25726891 C-16.49997978 14.79199067 -16.23931806 11.04619863 -15.76734066 7.25726891 C-12.04665224 0.78051499 -7.06794002 0.00833441 0 0 Z " fill="#75B1FB" transform="translate(299.7673406600952,233.74273109436035)"/>
<path d="M0 0 C1.3441969 -0.00576172 1.3441969 -0.00576172 2.71554929 -0.01163983 C4.20165544 -0.01034011 4.20165544 -0.01034011 5.71778393 -0.00901413 C6.76543791 -0.01198525 7.81309188 -0.01495637 8.89249295 -0.01801753 C12.42623945 -0.02673495 15.95995219 -0.02821534 19.49370861 -0.02970505 C22.01787928 -0.03433106 24.54204924 -0.03935542 27.06621838 -0.04475021 C33.94018365 -0.05789688 40.81413774 -0.06435997 47.68811345 -0.06876087 C51.97875833 -0.07152161 56.26940094 -0.07575866 60.56004429 -0.08026505 C72.43513663 -0.09245932 84.31022716 -0.10275818 96.18532562 -0.10614014 C97.32584768 -0.10646949 97.32584768 -0.10646949 98.48941059 -0.10680549 C99.25159873 -0.10702377 100.01378686 -0.10724204 100.79907161 -0.10746694 C102.34360556 -0.10791041 103.88813951 -0.10835697 105.43267345 -0.10880661 C106.58189162 -0.10913875 106.58189162 -0.10913875 107.75432631 -0.10947761 C120.16981251 -0.11342597 132.58524002 -0.13088042 145.00070355 -0.15416613 C157.74168317 -0.17786983 170.48263334 -0.19034155 183.22363538 -0.19150805 C190.37956765 -0.19242539 197.53542348 -0.1981924 204.69133472 -0.21632767 C211.4209666 -0.23332224 218.15042846 -0.23498863 224.88008404 -0.22618866 C227.35326494 -0.22541556 229.8264535 -0.22979669 232.29961491 -0.23964691 C235.66981122 -0.25228505 239.03948637 -0.24653366 242.40967846 -0.23606491 C243.39372372 -0.24412132 244.37776899 -0.25217772 245.39163381 -0.26047826 C251.48356462 -0.21606798 254.99730692 0.56465904 259.56670666 4.81892776 C261.31318006 8.21995491 261.42258321 11.43699474 260.75420666 15.13142776 C258.57760599 18.70727172 256.58376623 20.55004655 252.75420666 22.13142776 C250.62283719 22.38442743 250.62283719 22.38442743 248.28072834 22.38869667 C246.93670844 22.39837001 246.93670844 22.39837001 245.56553662 22.40823877 C244.58519794 22.40514156 243.60485926 22.40204436 242.59481335 22.3988533 C241.55023964 22.40338441 240.50566593 22.40791553 239.42943847 22.41258395 C235.91802107 22.42527665 232.40675779 22.42360443 228.89531994 22.42195511 C226.38232758 22.42793729 223.86933707 22.43474211 221.35634899 22.44231033 C215.23205539 22.45816904 209.10781855 22.46442006 202.98350634 22.46553509 C198.00557701 22.46648534 193.02766038 22.47059446 188.04973507 22.47693634 C173.93734792 22.49454971 159.82499119 22.50377503 145.71259297 22.50227539 C144.95176006 22.50219548 144.19092715 22.50211557 143.40703869 22.50203323 C142.26439642 22.50191059 142.26439642 22.50191059 141.09867047 22.50178547 C128.75186021 22.50097248 116.40517192 22.52011308 104.05839695 22.54830997 C91.38175353 22.57703183 78.7051696 22.59085066 66.02849281 22.58912241 C58.91110355 22.58845828 51.79384216 22.59396066 44.6764822 22.61547852 C37.98370892 22.63558301 31.29125072 22.63502381 24.59844875 22.62044525 C22.14019915 22.6183491 19.68193288 22.62310571 17.22371197 22.63516617 C13.87134321 22.6505499 10.51991505 22.64135509 7.16756725 22.62590408 C6.19169002 22.63619121 5.21581278 22.64647834 4.21036351 22.65707719 C-1.58719523 22.59790956 -4.79798711 21.93496672 -9.24579334 18.13142776 C-11.83686618 14.71592266 -11.7486764 11.29817313 -11.24579334 7.13142776 C-8.36145037 2.32776363 -5.5832238 0.00895414 0 0 Z " fill="#75B1FB" transform="translate(295.24579334259033,185.86857223510742)"/>
<path d="M0 0 C13.81283413 -0.09360896 27.62561878 -0.16379375 41.43870544 -0.20724869 C47.85296647 -0.22810684 54.26701411 -0.25639283 60.68115234 -0.30175781 C66.87329196 -0.34527769 73.06522655 -0.36915044 79.25750732 -0.37950897 C81.61776964 -0.38688922 83.97802096 -0.40130112 86.3381958 -0.42292023 C89.64888598 -0.45203489 92.95873327 -0.4559525 96.26953125 -0.45410156 C97.24129807 -0.46848267 98.21306488 -0.48286377 99.21427917 -0.49768066 C106.28057824 -0.45504415 111.65361038 1.0541435 117.0234375 5.78125 C117.46945312 6.3484375 117.91546875 6.915625 118.375 7.5 C119.06722656 8.35078125 119.06722656 8.35078125 119.7734375 9.21875 C124.19173791 15.63513531 123.62570851 22.48357756 123 30 C121.41021441 36.21634725 117.30159571 40.53908305 112 44 C108.49736416 45.61683042 105.76782107 46.24870675 101.91899109 46.24050903 C100.91924759 46.24325836 99.91950409 46.24600769 98.88946533 46.24884033 C97.80405457 46.24164978 96.7186438 46.23445923 95.6003418 46.22705078 C93.87286461 46.22748886 93.87286461 46.22748886 92.11048889 46.22793579 C88.30665535 46.22654327 84.50301805 46.2109854 80.69921875 46.1953125 C78.06077685 46.1915821 75.42233356 46.18873526 72.78388977 46.18673706 C66.55081227 46.18052692 60.31780513 46.16412243 54.08475858 46.14403808 C46.98684322 46.12166456 39.88892446 46.110682 32.7909826 46.10064721 C18.19395215 46.07975577 3.59697706 46.04458886 -11 46 C-10.45657959 45.06115967 -9.91315918 44.12231934 -9.35327148 43.1550293 C-8.62992317 41.89899626 -7.90670415 40.64288877 -7.18359375 39.38671875 C-6.82664429 38.77082886 -6.46969482 38.15493896 -6.10192871 37.52038574 C0.70327934 25.80311618 0.70327934 25.80311618 3.25 12.75 C3.27578125 11.83734375 3.3015625 10.9246875 3.328125 9.984375 C2.92010309 6.27331859 1.51499859 3.39299683 0 0 Z " fill="#0959E7" transform="translate(416,303)"/>
<path d="M0 0 C5.47398253 4.58630969 7.52992408 9.65785142 8.29858398 16.75805664 C8.44467252 19.69456115 8.52212312 22.62267858 8.5625 25.5625 C8.58839896 38.00789033 8.58839896 38.00789033 13.625 49.125 C15.34599766 51.73722859 16.01818865 53.09458098 16.625 56.25 C16 59 16 59 13.6875 61.3125 C11 63 11 63 8 64 C7.90203125 65.134375 7.8040625 66.26875 7.703125 67.4375 C5.99958379 85.28610077 5.99958379 85.28610077 -0.625 91.4375 C-4.56119242 94.02710028 -7.27452511 94.20772927 -11.90625 94.42578125 C-14.13395554 94.78562008 -14.13395554 94.78562008 -15.10498047 96.72436523 C-16.10459954 99.26594988 -16.31437104 101.25947499 -16.4140625 103.984375 C-16.45273438 104.91894531 -16.49140625 105.85351562 -16.53125 106.81640625 C-16.5621875 107.78449219 -16.593125 108.75257813 -16.625 109.75 C-16.66367188 110.73355469 -16.70234375 111.71710938 -16.7421875 112.73046875 C-16.83628426 115.15346037 -16.92192328 117.57644796 -17 120 C-20.91694071 119.86100313 -24.83347102 119.71261867 -28.75 119.5625 C-29.86117187 119.52318359 -30.97234375 119.48386719 -32.1171875 119.44335938 C-33.18710938 119.40146484 -34.25703125 119.35957031 -35.359375 119.31640625 C-36.34389648 119.27974854 -37.32841797 119.24309082 -38.34277344 119.20532227 C-40.68923551 119.02401258 -42.74718412 118.65668181 -45 118 C-44.45541551 113.77947018 -42.87470229 110.3582279 -41.03515625 106.57421875 C-37.60983837 98.05616409 -37.57902354 89.54929408 -37.375 80.5 C-37.33674703 79.09112362 -37.29769125 77.6822688 -37.2578125 76.2734375 C-37.16399467 72.84908673 -37.07829784 69.42473492 -37 66 C-38.6718335 65.79963135 -38.6718335 65.79963135 -40.37744141 65.59521484 C-44.20273923 64.96668835 -45.10079819 64.60282226 -47.375 61.625 C-47.85710937 61.01914063 -48.33921875 60.41328125 -48.8359375 59.7890625 C-51.91826895 55.05178799 -51.5594738 49.43155815 -51 44 C-48.8807513 39.60452122 -46.61176678 36.74222301 -42 35 C-37.31666 34.95044085 -33.93087192 35.37941872 -30 38 C-16.13481324 29.94005031 -5.83917264 19.95747702 -1.0625 4.25 C-0.69163717 2.83761222 -0.33042293 1.42239205 0 0 Z " fill="#FDA66C" transform="translate(233,188)"/>
<path d="M0 0 C10.53332157 5.83463401 17.10735325 13.88034383 21.4765625 25.04296875 C24.32066334 35.25256151 22.79789133 45.65655102 18.03125 54.984375 C15.3309857 59.70983753 12.58547864 63.82850739 8.390625 67.32421875 C7.730625 67.32421875 7.070625 67.32421875 6.390625 67.32421875 C6.15988281 66.80472656 5.92914063 66.28523438 5.69140625 65.75 C1.68160103 57.17567342 -3.75616383 52.65607242 -12.609375 49.32421875 C-18.41614576 47.95727648 -23.09948975 49.92506314 -28.20703125 52.703125 C-33.952395 56.58007777 -38.06707056 61.46953235 -39.609375 68.32421875 C-47.49634024 62.17238586 -53.92900216 54.44811794 -55.609375 44.32421875 C-56.45610733 34.88625104 -56.92777208 25.5418809 -51.609375 17.32421875 C-51.031875 16.31359375 -50.454375 15.30296875 -49.859375 14.26171875 C-37.94588356 -1.29200619 -18.67070192 -8.16127308 0 0 Z " fill="#AAD2FE" transform="translate(329.609375,42.67578125)"/>
<path d="M0 0 C1.27371712 -0.00043808 1.27371712 -0.00043808 2.57316589 -0.00088501 C5.37603014 0.0005068 8.17862758 0.01606103 10.98144531 0.03173828 C12.9262884 0.03546894 14.87113337 0.03831566 16.815979 0.04031372 C21.93208007 0.04794601 27.04806738 0.06759108 32.16412354 0.08972168 C37.38576723 0.11018878 42.60742931 0.11931729 47.82910156 0.12939453 C58.07264109 0.1508373 68.31609624 0.18496843 78.55957031 0.22705078 C78.01578735 1.17645035 77.47200439 2.12584991 76.91174316 3.10401917 C76.18821012 4.36840562 75.46470063 5.63280554 74.74121094 6.8972168 C74.20539398 7.83249081 74.20539398 7.83249081 73.65875244 8.78665924 C71.62493257 12.34227565 69.61965617 15.91082015 67.65332031 19.50439453 C66.78875504 21.05779 65.92417226 22.61117572 65.05957031 24.16455078 C64.63804687 24.94894531 64.21652344 25.73333984 63.78222656 26.54150391 C60.98450651 31.5101551 57.9900853 34.989921 53.50683594 38.52612305 C51.38636351 40.18339073 51.38636351 40.18339073 50.08789062 42.88842773 C45.83874999 46.81875973 40.77032529 45.93892249 35.20019531 45.89111328 C33.37267731 45.89828873 33.37267731 45.89828873 31.50823975 45.90560913 C28.92930817 45.90901229 26.35033371 45.89978112 23.77148438 45.87890625 C19.83787751 45.85224266 15.90714856 45.87859658 11.97363281 45.91064453 C9.46581404 45.90733871 6.95799705 45.90092892 4.45019531 45.89111328 C2.6935556 45.90629501 2.6935556 45.90629501 0.90142822 45.92178345 C-7.09178689 45.80804732 -12.13912479 44.32092092 -17.95599365 38.78457642 C-23.02743223 33.2073146 -23.96845899 27.40695136 -23.81933594 20.10986328 C-23.00096132 13.88346672 -20.12682272 8.35967525 -15.37792969 4.22705078 C-10.05509343 0.60299205 -6.44839722 -0.05802229 0 0 Z " fill="#0958E7" transform="translate(305.4404296875,302.77294921875)"/>
<path d="M0 0 C1.7896241 -0.01062721 1.7896241 -0.01062721 3.61540222 -0.02146912 C5.57375504 -0.01775299 5.57375504 -0.01775299 7.57167053 -0.01396179 C8.96314772 -0.0183099 10.35462251 -0.02349339 11.74609375 -0.02944946 C15.52295864 -0.04284 19.29972346 -0.04341809 23.07660747 -0.04088616 C26.23022663 -0.0398165 29.38382554 -0.04469969 32.53744036 -0.04949158 C39.97757676 -0.06058693 47.41766267 -0.06102401 54.85780334 -0.05497742 C62.53204184 -0.04893646 70.20609705 -0.0612516 77.88030428 -0.08254749 C84.47065396 -0.10016289 91.0609453 -0.10616495 97.65131766 -0.10290974 C101.58677851 -0.10109666 105.52210861 -0.1037355 109.45754814 -0.11762428 C113.15859167 -0.13019712 116.85934944 -0.1282639 120.56038857 -0.11521339 C122.56446196 -0.11171915 124.56854407 -0.12302956 126.57258606 -0.13478088 C127.76848862 -0.12776657 128.96439117 -0.12075226 130.1965332 -0.11352539 C131.23388579 -0.11369313 132.27123838 -0.11386087 133.3400259 -0.1140337 C137.40391516 0.4256566 140.01303447 2.1911948 142.97425842 4.94819641 C144.71912059 8.34608589 144.69834348 11.56340487 144.16175842 15.26069641 C142.84007635 18.46055826 142.02601037 19.83008176 138.92088318 21.37721539 C135.8620766 22.35665554 133.41232842 22.51503428 130.20326233 22.52139282 C128.41157623 22.53202003 128.41157623 22.53202003 126.58369446 22.54286194 C125.28172119 22.54038452 123.97974792 22.5379071 122.63832092 22.53535461 C121.24669624 22.53970407 119.85507395 22.544888 118.4634552 22.55084229 C114.69078155 22.56421695 110.91820817 22.56481278 107.14551544 22.56227899 C103.99433144 22.56120846 100.84316766 22.56609463 97.69198799 22.57088441 C90.25806792 22.58197381 82.82419839 22.58241988 75.39027405 22.57637024 C67.72339914 22.57032698 60.05670759 22.58265161 52.38986397 22.60394031 C45.80374037 22.6215551 39.21767514 22.62755796 32.63152885 22.62430257 C28.69943631 22.62248972 24.76747464 22.62512619 20.83540344 22.63901711 C17.13845043 22.65158928 13.4417835 22.64965735 9.7448349 22.63660622 C7.74315649 22.63311204 5.74146936 22.64442226 3.73982239 22.65617371 C2.54536499 22.64915939 1.35090759 22.64214508 0.12025452 22.63491821 C-1.43382614 22.63516983 -1.43382614 22.63516983 -3.01930237 22.63542652 C-7.08134072 22.09544748 -9.69080998 20.3289948 -12.65074158 17.57319641 C-14.39721498 14.17216926 -14.50661813 10.95512944 -13.83824158 7.26069641 C-10.28206483 1.41840604 -6.64165319 0.01314828 0 0 Z " fill="#76B1FA" transform="translate(401.83824157714844,68.73930358886719)"/>
<path d="M0 0 C6.92270571 0.63407468 13.48420704 2.27696315 20.22146606 3.95108032 C29.65939632 6.28613411 38.81329352 8.34713239 48.5625 8.8125 C57.59301483 9.32383258 65.7617303 11.82168914 74.25 14.75 C75.47662354 15.16870361 76.70324707 15.58740723 77.96704102 16.01879883 C87.13995352 19.32256195 96.7503613 23.36349762 102 32 C102.38078124 35.0512602 102.30547991 37.94520087 102 41 C81.4979703 53.98345853 38.98963488 39.86319779 17 36 C16.15385132 35.85141541 15.30770264 35.70283081 14.43591309 35.54974365 C6.2757167 34.11083 -1.87295504 32.61661272 -10 31 C-8.95551848 19.11596135 -6.07773103 10.34591108 0 0 Z " fill="#181E47" transform="translate(61,847)"/>
<path d="M0 0 C0.65371582 0.08564209 1.30743164 0.17128418 1.98095703 0.25952148 C29.51459818 5.67787673 29.51459818 5.67787673 56.46484375 2.92578125 C63.69920117 0.28395889 73.7262558 4.47976303 80.875 6.25 C82.09058594 6.53746094 83.30617188 6.82492187 84.55859375 7.12109375 C94.02051827 9.45850552 103.75779439 12.10544565 110.015625 20.0859375 C111.74927702 23.45692754 111.39109181 26.28462778 111 30 C104.76385293 33.59777716 97.83836109 33.1401575 90.86376953 33.11352539 C89.8582756 33.11367142 88.85278168 33.11381744 87.81681824 33.1139679 C84.50546077 33.11327327 81.1941601 33.10550194 77.8828125 33.09765625 C75.58210277 33.09579047 73.28139264 33.09436732 70.98068237 33.09336853 C64.93415219 33.08955594 58.88764615 33.07973639 52.84112549 33.06866455 C46.66752448 33.05842338 40.49391956 33.05386511 34.3203125 33.04882812 C22.21353108 33.038113 10.10676755 33.02105168 -2 33 C-2.05855764 29.00006253 -2.09378299 25.00023692 -2.125 21 C-2.14175781 19.87464844 -2.15851563 18.74929688 -2.17578125 17.58984375 C-2.21227343 11.34968069 -1.85765989 5.96791525 0 0 Z " fill="#171D47" transform="translate(223,859)"/>
<path d="M0 0 C1.32 0.66 2.64 1.32 4 2 C4.55182903 9.5953134 2.96356165 14.35900005 -0.5 21.0625 C-0.92925781 21.92810547 -1.35851562 22.79371094 -1.80078125 23.68554688 C-2.85159351 25.79884708 -3.91788634 27.90260535 -5 30 C-3.89205078 30.11601562 -3.89205078 30.11601562 -2.76171875 30.234375 C0.68564585 31.19008004 1.87856489 32.55252069 4.1875 35.25 C5.19876953 36.40242188 5.19876953 36.40242188 6.23046875 37.578125 C10.46500702 43.37374029 10.85830517 49.02514111 10 56 C6.33003252 68.63151599 -1.57168818 81.04405667 -10 91 C-14.34711859 90.43121349 -17.1686375 88.86249228 -20.81640625 86.47265625 C-22.45706055 85.40821289 -22.45706055 85.40821289 -24.13085938 84.32226562 C-25.27498514 83.56938344 -26.41886306 82.81612451 -27.5625 82.0625 C-29.8117613 80.59189022 -32.06396622 79.12590336 -34.31640625 77.66015625 C-35.31099854 77.00668213 -36.30559082 76.35320801 -37.33032227 75.67993164 C-39.51634713 74.30434526 -41.6649341 73.09491957 -44 72 C-43.46303142 67.32789582 -42.19912853 64.09158204 -39.83203125 60.04296875 C-39.18556641 58.92986328 -38.53910156 57.81675781 -37.87304688 56.66992188 C-37.53394287 56.09685303 -37.19483887 55.52378418 -36.84545898 54.93334961 C-35.82450478 53.2077898 -34.81743194 51.47404135 -33.81054688 49.74023438 C-30.49027931 44.06005305 -27.06179744 38.50441947 -23.36499023 33.06274414 C-21.12416256 29.67645313 -19.1387148 26.14920614 -17.125 22.625 C-6.60577473 4.51055103 -6.60577473 4.51055103 0 0 Z " fill="#FEA56B" transform="translate(410,265)"/>
<path d="M0 0 C1.41112316 4.23336947 -0.36482425 6.920292 -2.05859375 10.8203125 C-2.3938205 11.61431961 -2.72904724 12.40832672 -3.07443237 13.22639465 C-3.80412863 14.95357429 -4.53784579 16.67905934 -5.27505493 18.40304565 C-7.26148692 23.05442863 -9.21178491 27.72092067 -11.1640625 32.38671875 C-11.56774551 33.35003616 -11.97142853 34.31335358 -12.38734436 35.30586243 C-23.89389909 62.83554334 -34.37480065 90.76027317 -44 119 C-44.21865723 119.63696808 -44.43731445 120.27393616 -44.66259766 120.9302063 C-47.46657488 129.10919965 -50.01518836 137.300176 -52.125 145.6875 C-52.37870361 146.67790283 -52.63240723 147.66830566 -52.89379883 148.6887207 C-53.60160021 151.45773446 -54.30229519 154.2284278 -55 157 C-55.31066406 158.2271875 -55.62132812 159.454375 -55.94140625 160.71875 C-56.41878978 162.61828656 -56.89067689 164.51921825 -57.35546875 166.421875 C-57.79193946 168.16775783 -58.25371696 169.9074744 -58.73828125 171.640625 C-63.72888008 189.9650802 -64.75069652 209.13484462 -66 228 C-65.73896484 227.48203857 -65.47792969 226.96407715 -65.20898438 226.43041992 C-60.13198709 216.41535368 -55.11139465 206.75147645 -48 198 C-47.59168945 197.48775879 -47.18337891 196.97551758 -46.76269531 196.44775391 C-23.95396336 167.932612 10.63444584 146.98625737 46 138 C46.99 138 47.98 138 49 138 C49 138.66 49 139.32 49 140 C47.84628906 140.36609375 46.69257812 140.7321875 45.50390625 141.109375 C20.27641418 149.38016703 -5.04083366 161.20546414 -25 179 C-26.28970703 180.12728516 -26.28970703 180.12728516 -27.60546875 181.27734375 C-30.10151492 183.48640125 -32.55431007 185.73547229 -35 188 C-35.64195312 188.56460938 -36.28390625 189.12921875 -36.9453125 189.7109375 C-41.7106844 194.1174111 -45.54059818 199.16529398 -49.375 204.375 C-50.1326062 205.38904907 -50.1326062 205.38904907 -50.90551758 206.42358398 C-52.00446308 207.9513442 -53.06153468 209.5096419 -54.08740234 211.08740234 C-55.10296377 212.63394917 -56.13320757 214.17418456 -57.25714111 215.64385986 C-68.33094085 230.17825302 -67.21207524 246.00606348 -66.68664551 263.36749268 C-66.58284085 267.16890152 -66.53836211 270.97100871 -66.48828125 274.7734375 C-66.38223447 282.18415477 -66.21245364 289.59148617 -66 297 C-66.99 297 -67.98 297 -69 297 C-68.97268799 296.20118408 -68.94537598 295.40236816 -68.91723633 294.5793457 C-68.44987824 275.9104656 -69.96847006 261.74430051 -81 246 C-81.46825195 245.3203418 -81.93650391 244.64068359 -82.41894531 243.94042969 C-85.37480536 239.73733575 -88.56279383 235.81679756 -92 232 C-92.66467285 231.25484131 -92.66467285 231.25484131 -93.34277344 230.49462891 C-100.07995784 223.06108833 -107.59613428 217.35069944 -116 212 C-116.88558594 211.40703125 -117.77117187 210.8140625 -118.68359375 210.203125 C-128.68409827 203.87479413 -139.95799776 200.1105776 -151 196 C-151 195.34 -151 194.68 -151 194 C-122.85066438 199.69495229 -97.88844858 216.24448518 -81.890625 240.15234375 C-77.42399293 247.21331663 -73.68888954 254.50529527 -70 262 C-69.97494385 261.06953857 -69.9498877 260.13907715 -69.92407227 259.18041992 C-68.65210012 212.51548264 -68.65210012 212.51548264 -66.40234375 195.9296875 C-65.53272778 187.43615679 -66.20313261 180.76228252 -68.875 172.625 C-69.18526123 171.67109375 -69.49552246 170.7171875 -69.81518555 169.734375 C-77.55072551 146.97857054 -91.16276201 128.81012489 -108 112 C-108.5878125 111.37738281 -109.175625 110.75476563 -109.78125 110.11328125 C-118.38869106 101.0950305 -128.77272423 94.04466198 -139 87 C-141.33968787 85.34201975 -143.66996828 83.6715445 -146 82 C-145.01 81.505 -145.01 81.505 -144 81 C-129.00339357 87.71993264 -115.71641439 99.71370361 -104 111 C-103.23558594 111.70125 -102.47117187 112.4025 -101.68359375 113.125 C-86.92373703 127.06633157 -76.04485953 145.15986874 -68.9375 164.0625 C-68.65028076 164.82344971 -68.36306152 165.58439941 -68.06713867 166.3684082 C-66.2174314 171.58932847 -65.44319238 176.47924558 -65 182 C-64.34 182 -63.68 182 -63 182 C-62.98582031 181.44957031 -62.97164063 180.89914062 -62.95703125 180.33203125 C-59.58044621 121.46994076 -26.06677739 52.13355477 0 0 Z " fill="#4086F0" transform="translate(561,466)"/>
<path d="M0 0 C0.33 0 0.66 0 1 0 C1 36.96 1 73.92 1 112 C183.16 112 365.32 112 553 112 C553 76.03 553 40.06 553 3 C553.33 3 553.66 3 554 3 C554 39.63 554 76.26 554 114 C370.85 114 187.7 114 -1 114 C-1 2 -1 2 0 0 Z " fill="#0141E4" transform="translate(227,28)"/>
<path d="M0 0 C15.18 0 30.36 0 46 0 C46.495 7.92 46.495 7.92 47 16 C52.23243819 20.52708622 52.23243819 20.52708622 58 23 C57.505 24.485 57.505 24.485 57 26 C46.02647205 30.56351042 28.47078354 26.33730883 17 25 C15.79657959 24.86392334 15.79657959 24.86392334 14.56884766 24.72509766 C1.20872201 23.20872201 1.20872201 23.20872201 0 22 C0 14.74 0 7.48 0 0 Z " fill="#FBA66D" transform="translate(224,837)"/>
<path d="M0 0 C10.69455042 1.66471775 21.38226196 3.37071135 32.0625 5.125 C33.6412793 5.38071777 33.6412793 5.38071777 35.25195312 5.64160156 C36.23228516 5.80370117 37.21261719 5.96580078 38.22265625 6.1328125 C39.09672119 6.27605957 39.97078613 6.41930664 40.87133789 6.56689453 C43 7 43 7 45 8 C44.97905273 8.59014893 44.95810547 9.18029785 44.93652344 9.78833008 C44.85336317 12.46287999 44.80134309 15.13715815 44.75 17.8125 C44.71648437 18.74126953 44.68296875 19.67003906 44.6484375 20.62695312 C44.63554688 21.51962891 44.62265625 22.41230469 44.609375 23.33203125 C44.58842773 24.15421143 44.56748047 24.9763916 44.54589844 25.82348633 C44.81453683 28.19548009 44.81453683 28.19548009 47.02441406 29.79174805 C47.67635742 30.19047119 48.32830078 30.58919434 49 31 C40.02470884 31.4051773 31.98132397 30.26519822 23.25 28.25 C22.03022461 27.97849121 20.81044922 27.70698242 19.55371094 27.42724609 C10.66592561 25.43239011 1.80747005 23.32495327 -7 21 C-6.34 20.67 -5.68 20.34 -5 20 C-4.41575814 17.72308652 -4.41575814 17.72308652 -4.0625 15 C-3.29612633 9.76187319 -1.75180016 4.97552708 0 0 Z " fill="#FCA76D" transform="translate(68,826)"/>
<path d="M0 0 C4.43793873 2.13972046 7.08717799 4.43048075 9 9 C9.64459338 13.97257751 8.92431648 17.3477497 6.25390625 21.48828125 C3.65826017 24.61761157 0.79797703 25.64307321 -3.10546875 26.41796875 C-6.8069636 26.75562663 -9.13402263 26.54670288 -12.3203125 24.53515625 C-16.68304048 20.83700153 -18.75772403 18.56812523 -19.3125 12.6875 C-18.88374868 7.6282344 -16.91327974 4.74348652 -13.1953125 1.35546875 C-9.13143365 -1.15372335 -4.60575678 -0.60075088 0 0 Z " fill="#0B59E7" transform="translate(318,58)"/>
<path d="M0 0 C0.33 0 0.66 0 1 0 C1.31358343 26.06601924 0.45483392 51.97549741 -1 78 C-1.66 78 -2.32 78 -3 78 C-9.82569613 53.29748066 -7.30835838 24.26243301 0 0 Z " fill="#AE8434" transform="translate(111,350)"/>
<path d="M0 0 C0 8.58 0 17.16 0 26 C-3.3 26 -6.6 26 -10 26 C-10.08107913 22.60368528 -10.14053944 19.20931384 -10.1875 15.8125 C-10.21263672 14.85279297 -10.23777344 13.89308594 -10.26367188 12.90429688 C-10.30529921 8.8941966 -10.2176644 5.64349511 -8.92578125 1.82421875 C-7 0 -7 0 0 0 Z " fill="#CEE6FB" transform="translate(226,282)"/>
<path d="M0 0 C3.48872028 4.40842248 5.61035957 9.22229469 7.9375 14.3125 C8.411875 15.3447168 8.88625 16.37693359 9.375 17.44042969 C14.02579677 27.74079093 18.08054246 38.25427842 22.02709961 48.84106445 C22.27040512 49.48721207 22.51371063 50.13335968 22.76438904 50.79908752 C23.42581457 52.55771631 24.07939331 54.31929062 24.73242188 56.08105469 C25.8598174 59.00959251 25.8598174 59.00959251 27.72070312 61.20800781 C28.14287109 61.79936523 28.56503906 62.39072266 29 63 C28.67 63.99 28.34 64.98 28 66 C27.505 65.01 27.505 65.01 27 64 C26.34 66.64 25.68 69.28 25 72 C24.67 72 24.34 72 24 72 C23.938125 71.0925 23.87625 70.185 23.8125 69.25 C23.32591397 65.87628148 22.26845861 63.10395598 20.890625 59.9921875 C17.12063736 51.1175003 14.07853585 41.98674396 10.9375 32.875 C9.72035241 29.35055003 8.50038714 25.82709586 7.27734375 22.3046875 C6.98926849 21.47322205 6.70119324 20.64175659 6.40438843 19.78509521 C4.63572502 14.71458078 2.76295409 9.71320781 0.63110352 4.78173828 C0 3 0 3 0 0 Z " fill="#0E1539" transform="translate(153,560)"/>
<path d="M0 0 C26.4 0 52.8 0 80 0 C79.34 1.32 78.68 2.64 78 4 C77.505 3.01 77.505 3.01 77 2 C51.59 1.67 26.18 1.34 0 1 C0 0.67 0 0.34 0 0 Z " fill="#116AE6" transform="translate(301,304)"/>
<path d="M0 0 C0.33 0 0.66 0 1 0 C1.95468258 6.37457348 2.1202324 12.56061653 2.0625 19 C2.05798828 19.96550781 2.05347656 20.93101562 2.04882812 21.92578125 C2.03715417 24.28392089 2.02078021 26.64192602 2 29 C1.01 29 0.02 29 -1 29 C-1.02465881 25.03069011 -1.04284023 21.06140966 -1.05493164 17.09204102 C-1.05997057 15.74079614 -1.06680177 14.38955674 -1.07543945 13.03833008 C-1.08752419 11.09979566 -1.09269828 9.161222 -1.09765625 7.22265625 C-1.10289307 6.05484619 -1.10812988 4.88703613 -1.11352539 3.68383789 C-1 1 -1 1 0 0 Z " fill="#4B8EF3" transform="translate(493,734)"/>
<path d="M0 0 C-0.16015625 1.859375 -0.16015625 1.859375 -1 4 C-3.43359375 5.265625 -3.43359375 5.265625 -6.4375 6.25 C-7.42621094 6.58515625 -8.41492188 6.9203125 -9.43359375 7.265625 C-12 8 -12 8 -14 8 C-13.5047783 4.33535945 -12.9791794 2.29167646 -10 0 C-6.30581799 -1.231394 -3.7943739 -0.64432764 0 0 Z " fill="#1B1D4A" transform="translate(240,214)"/>
<path d="M0 0 C-0.33 0.99 -0.66 1.98 -1 3 C-18.16 2.67 -35.32 2.34 -53 2 C-53 1.67 -53 1.34 -53 1 C-45.93417184 0.85716437 -38.8683344 0.71479549 -31.80249023 0.57275391 C-29.39786566 0.52435935 -26.99324325 0.47585723 -24.58862305 0.42724609 C-21.13591056 0.35746556 -17.68319052 0.28806957 -14.23046875 0.21875 C-13.15226364 0.19687622 -12.07405853 0.17500244 -10.96318054 0.15246582 C-9.96236954 0.13244507 -8.96155853 0.11242432 -7.93041992 0.09179688 C-6.60804573 0.06514954 -6.60804573 0.06514954 -5.25895691 0.03796387 C-3.50617311 0.00850671 -1.75303131 0 0 0 Z " fill="#1269E8" transform="translate(354,345)"/>
<path d="M0 0 C0.33 4.95 0.66 9.9 1 15 C0.67 14.34 0.34 13.68 0 13 C-0.99 13.33 -1.98 13.66 -3 14 C-3 12.02 -3 10.04 -3 8 C-4.65 8.33 -6.3 8.66 -8 9 C-7.67 8.01 -7.34 7.02 -7 6 C-4.9375 5.3125 -4.9375 5.3125 -3 5 C-3 4.34 -3 3.68 -3 3 C-5.31 3.66 -7.62 4.32 -10 5 C-7.53606566 1.9885247 -4.00485648 0 0 0 Z " fill="#F8B470" transform="translate(240,217)"/>
<path d="M0 0 C0.66 0 1.32 0 2 0 C2 4.95 2 9.9 2 15 C5.48307292 14.70703125 8.96614583 14.4140625 12.44921875 14.12109375 C15.55835533 14.01506159 18.00810972 14.22771475 21 15 C21 15.33 21 15.66 21 16 C14.4 16 7.8 16 1 16 C0.67 13.69 0.34 11.38 0 9 C-0.33 9 -0.66 9 -1 9 C-1.09765625 2.84765625 -1.09765625 2.84765625 -1 1 C-0.67 0.67 -0.34 0.34 0 0 Z " fill="#1F2751" transform="translate(206,820)"/>
<path d="M0 0 C0.33 0 0.66 0 1 0 C1.33 2.97 1.66 5.94 2 9 C2.33 9 2.66 9 3 9 C3.02721176 10.89575251 3.04649136 12.79161979 3.0625 14.6875 C3.07410156 15.74324219 3.08570313 16.79898438 3.09765625 17.88671875 C3.00865425 20.72410262 2.64939838 23.2438919 2 26 C1.67 26 1.34 26 1 26 C0.22471521 22.57426063 -0.11918778 19.42760755 -0.09765625 15.91796875 C-0.09443359 14.98662109 -0.09121094 14.05527344 -0.08789062 13.09570312 C-0.07951172 12.13599609 -0.07113281 11.17628906 -0.0625 10.1875 C-0.05798828 9.20845703 -0.05347656 8.22941406 -0.04882812 7.22070312 C-0.03708684 4.81373889 -0.02066419 2.40690143 0 0 Z " fill="#232952" transform="translate(277,716)"/>
<path d="M0 0 C0 3 0 3 -1.875 5.1875 C-4 7 -4 7 -6 7 C-6.08378906 7.62261719 -6.16757813 8.24523437 -6.25390625 8.88671875 C-7 11 -7 11 -8.77734375 12.08203125 C-9.49019531 12.32308594 -10.20304688 12.56414062 -10.9375 12.8125 C-11.64777344 13.06644531 -12.35804688 13.32039063 -13.08984375 13.58203125 C-15 14 -15 14 -17 13 C-16.10796875 12.39671875 -15.2159375 11.7934375 -14.296875 11.171875 C-13.11442934 10.36480891 -11.93214624 9.55750461 -10.75 8.75 C-10.16347656 8.35425781 -9.57695312 7.95851563 -8.97265625 7.55078125 C-5.65504285 5.27691139 -2.75007523 2.96790297 0 0 Z " fill="#F9DE3D" transform="translate(184,309)"/>
<path d="M0 0 C4.10958767 1.45044271 7.43258745 3.51110752 11 6 C8 7 8 7 6.0625 6.5 C3.68227266 5.92297519 2.30293321 6.25977147 0 7 C0 4.69 0 2.38 0 0 Z " fill="#CFE5E4" transform="translate(250,407)"/>
<path d="M0 0 C0.92232422 0.63228516 0.92232422 0.63228516 1.86328125 1.27734375 C3.07564453 2.09912109 3.07564453 2.09912109 4.3125 2.9375 C5.11300781 3.48277344 5.91351563 4.02804687 6.73828125 4.58984375 C9.0258143 6.13837326 9.0258143 6.13837326 12 7 C11.67 7.99 11.34 8.98 11 10 C8.03 9.505 8.03 9.505 5 9 C5.33 8.34 5.66 7.68 6 7 C5.01 6.21625 4.02 5.4325 3 4.625 C2.01 3.75875 1.02 2.8925 0 2 C0 1.34 0 0.68 0 0 Z " fill="#F99E5F" transform="translate(270,853)"/>
<path d="M0 0 C0.66 0.33 1.32 0.66 2 1 C0.515 3.475 0.515 3.475 -1 6 C1.97 6.495 1.97 6.495 5 7 C4.67 7.66 4.34 8.32 4 9 C1.03 9 -1.94 9 -5 9 C-3.35 6.03 -1.7 3.06 0 0 Z " fill="#0C47EB" transform="translate(410,340)"/>
<path d="M0 0 C2.0625 0.4375 2.0625 0.4375 4 1 C3.67 2.65 3.34 4.3 3 6 C1.68 6 0.36 6 -1 6 C-1.042721 4.33388095 -1.04063832 2.66617115 -1 1 C-0.67 0.67 -0.34 0.34 0 0 Z " fill="#101146" transform="translate(234,224)"/>
<path d="M0 0 C1.53445094 3.06890187 0.54984289 5.70094266 0 9 C-0.99 9.33 -1.98 9.66 -3 10 C-4.66710346 11.49985609 -4.66710346 11.49985609 -6 13 C-5.51675181 7.84535266 -2.81389239 4.18449681 0 0 Z " fill="#FDBE2A" transform="translate(103,313)"/>
<path d="M0 0 C2.35119399 3.52679099 2.21443452 5.02879485 2.125 9.1875 C2.10695312 10.27417969 2.08890625 11.36085938 2.0703125 12.48046875 C2.03550781 13.72763672 2.03550781 13.72763672 2 15 C-1.58642411 10.78123269 -1.34292751 8.40110822 -1 3 C-0.67 2.01 -0.34 1.02 0 0 Z " fill="#232952" transform="translate(204,781)"/>
<path d="M0 0 C0.66 0 1.32 0 2 0 C2 4.62 2 9.24 2 14 C-1.33785639 9.54952481 -1.38736291 8.32624 -1 3 C-0.67 2.01 -0.34 1.02 0 0 Z " fill="#212750" transform="translate(200,709)"/>
<path d="M0 0 C0.66 0.33 1.32 0.66 2 1 C2.08121924 2.60332791 2.13929134 4.20784026 2.1875 5.8125 C2.23970703 7.15248047 2.23970703 7.15248047 2.29296875 8.51953125 C1.95081002 11.41647515 1.24606427 12.22555028 -1 14 C-1.02685938 11.85423363 -1.04633088 9.70837355 -1.0625 7.5625 C-1.07410156 6.36753906 -1.08570312 5.17257812 -1.09765625 3.94140625 C-1 1 -1 1 0 0 Z " fill="#C4D7EF" transform="translate(95,582)"/>
<path d="M0 0 C0 3.66842255 -0.79029126 5.10451959 -3 8 C-5.6875 8.8125 -5.6875 8.8125 -8 9 C-7.04270084 7.87411986 -6.08412105 6.7493285 -5.125 5.625 C-4.59132812 4.99851563 -4.05765625 4.37203125 -3.5078125 3.7265625 C-2.38567993 2.44163349 -1.20628025 1.20628025 0 0 Z " fill="#0D1133" transform="translate(153,171)"/>
<path d="M0 0 C0 0.33 0 0.66 0 1 C1.65 1.33 3.3 1.66 5 2 C5 2.33 5 2.66 5 3 C2.87527424 3.05386629 0.75016348 3.09273071 -1.375 3.125 C-3.15003906 3.15980469 -3.15003906 3.15980469 -4.9609375 3.1953125 C-8 3 -8 3 -10 1 C-6.52674819 -0.1577506 -3.63932552 -0.06866652 0 0 Z " fill="#24254B" transform="translate(164,496)"/>
<path d="M0 0 C0.33 0 0.66 0 1 0 C1 1.98 1 3.96 1 6 C-5.75 8.125 -5.75 8.125 -8 7 C-8 6.34 -8 5.68 -8 5 C-5.69 5.33 -3.38 5.66 -1 6 C-0.67 4.02 -0.34 2.04 0 0 Z " fill="#F1C748" transform="translate(256,483)"/>
<path d="M0 0 C1.33855056 0.78281305 2.67073644 1.57651877 4 2.375 C5.11375 3.03628906 5.11375 3.03628906 6.25 3.7109375 C6.8275 4.13632812 7.405 4.56171875 8 5 C8 5.66 8 6.32 8 7 C5.5625 6.625 5.5625 6.625 3 6 C2.67 5.34 2.34 4.68 2 4 C-0.02463255 3.34786708 -0.02463255 3.34786708 -2 3 C-1 1 -1 1 0 0 Z " fill="#CCE7F2" transform="translate(275,423)"/>
<path d="M0 0 C2.6855594 2.6855594 3.06049974 5.37621328 4 9 C2.35 9 0.7 9 -1 9 C-0.67 6.03 -0.34 3.06 0 0 Z " fill="#DCDEE5" transform="translate(179,622)"/>
<path d="M0 0 C0.33 0 0.66 0 1 0 C1 1.65 1 3.3 1 5 C1.99 5 2.98 5 4 5 C4 5.66 4 6.32 4 7 C5.32 7 6.64 7 8 7 C8 7.66 8 8.32 8 9 C3.545 8.01 3.545 8.01 -1 7 C-0.67 4.69 -0.34 2.38 0 0 Z " fill="#F0CB43" transform="translate(107,481)"/>
<path d="M0 0 C1 3 1 3 0.00390625 5.26171875 C-0.47175781 6.06222656 -0.94742187 6.86273438 -1.4375 7.6875 C-1.91058594 8.49574219 -2.38367188 9.30398438 -2.87109375 10.13671875 C-3.24363281 10.75160156 -3.61617188 11.36648438 -4 12 C-5.31223496 8.06329512 -4.24296256 5.87511856 -3 2 C-2.34 2 -1.68 2 -1 2 C-0.67 1.34 -0.34 0.68 0 0 Z " fill="#1954ED" transform="translate(375,314)"/>
<path d="M0 0 C0 0.33 0 0.66 0 1 C-1.670625 1.4021875 -1.670625 1.4021875 -3.375 1.8125 C-7.21840951 2.65809019 -7.21840951 2.65809019 -9 6 C-8.34 6.33 -7.68 6.66 -7 7 C-8.32 7.33 -9.64 7.66 -11 8 C-10.64987213 5.40905378 -10.26229035 3.4225789 -8.875 1.1875 C-5.99131838 -0.63883169 -3.32254207 -0.18806842 0 0 Z " fill="#0B0C45" transform="translate(237,214)"/>
<path d="M0 0 C2.31 0.33 4.62 0.66 7 1 C7 1.33 7 1.66 7 2 C5.35 2 3.7 2 2 2 C1.34 4.64 0.68 7.28 0 10 C-0.33 10 -0.66 10 -1 10 C-0.67 6.7 -0.34 3.4 0 0 Z " fill="#0F1133" transform="translate(223,859)"/>
<path d="M0 0 C4.29 0.66 8.58 1.32 13 2 C13 2.33 13 2.66 13 3 C8.38 3 3.76 3 -1 3 C-0.67 2.01 -0.34 1.02 0 0 Z " fill="#FCD539" transform="translate(187,305)"/>
<path d="M0 0 C0.66 0.66 1.32 1.32 2 2 C1.34 3.32 0.68 4.64 0 6 C-0.66 6 -1.32 6 -2 6 C-2.33 6.99 -2.66 7.98 -3 9 C-2.4140625 2.84765625 -2.4140625 2.84765625 -2 1 C-1.34 0.67 -0.68 0.34 0 0 Z " fill="#FDBE2E" transform="translate(73,394)"/>
<path d="M0 0 C1.485 0.99 1.485 0.99 3 2 C3.1875 5.625 3.1875 5.625 3 9 C2.01 8.67 1.02 8.34 0 8 C0 5.36 0 2.72 0 0 Z " fill="#252A52" transform="translate(273,646)"/>
<path d="M0 0 C0.33 0 0.66 0 1 0 C1.04898437 0.63808594 1.09796875 1.27617188 1.1484375 1.93359375 C1.22320312 2.75988281 1.29796875 3.58617187 1.375 4.4375 C1.44460938 5.26121094 1.51421875 6.08492187 1.5859375 6.93359375 C1.72257812 7.61550781 1.85921875 8.29742188 2 9 C2.66 9.33 3.32 9.66 4 10 C2.68 10.33 1.36 10.66 0 11 C0 7.37 0 3.74 0 0 Z " fill="#ECF4F9" transform="translate(269,581)"/>
<path d="M0 0 C1.65 1.32 3.3 2.64 5 4 C2.64561267 5.42944945 1.51967567 6.08661261 -1.25 5.625 C-1.8275 5.41875 -2.405 5.2125 -3 5 C-2.01 4.34 -1.02 3.68 0 3 C0 2.01 0 1.02 0 0 Z " fill="#0F144B" transform="translate(161,318)"/>
<path d="M0 0 C0.65234375 1.796875 0.65234375 1.796875 1 4 C-0.36489377 6.33370072 -2.1419038 8.00594554 -4 10 C-4.33 9.34 -4.66 8.68 -5 8 C-4.00390625 6.0546875 -4.00390625 6.0546875 -2.5625 3.875 C-2.08941406 3.15054687 -1.61632812 2.42609375 -1.12890625 1.6796875 C-0.75636719 1.12539063 -0.38382812 0.57109375 0 0 Z " fill="#FE9852" transform="translate(394,286)"/>
<path d="M0 0 C0.66 0.99 1.32 1.98 2 3 C1.236875 3.45375 0.47375 3.9075 -0.3125 4.375 C-2.23632814 5.53824492 -4.12941224 6.7529415 -6 8 C-4.55746343 4.63408134 -2.66735273 2.48952921 0 0 Z " fill="#FBDD2F" transform="translate(360,339)"/>
<path d="M0 0 C1.32 0.66 2.64 1.32 4 2 C2.68 3.32 1.36 4.64 0 6 C-1.125 2.25 -1.125 2.25 0 0 Z " fill="#235CE9" transform="translate(362,332)"/>
</svg>
